/* XPM */
static char * enigma_xpm[] = {
"128 60 2 1",
" 	c None",
".	c #000000",
"                                                                                                                                ",
"                                                           ..........                                                           ",
"                                                  ............................                                                  ",
"                                            ........................................                                            ",
"                                        ................................................                                        ",
"                                    ..................                    ..................                                    ",
"                                ..............                                    ..............                                ",
"                             .............                   ..........               .............                             ",
"                          ...........           .....      ..............     ...          ...........                          ",
"                        ..........              .....     ................    .........       ..........                        ",
"                     ..........                 .....    .......    .......   .............      ..........                     ",
"                   .........        ......      .....    .....       ......   ................      .........                   ",
"                 ........         .........     .....    .....        .....   ..................       ........                 ",
"               ........        .............    .....    .....        .....   .....  ............        ........               ",
"             ........         ..............    .....    .....                ....    ............         ........             ",
"            .......         ........  .......   .....    .....                ....    .....  .....           .......            ",
"          .......       ..  ......     ......   .....    .....                ....    .....  .....       .     .......          ",
"         ......        ...  .....      ......   .....    .....                ....     ....   ....      ....     ......         ",
"        .....        .....  .....      ......   .....    .....                ....     ....   ....     .......     .....        ",
"       .....       .......  .....      ......   .....    .....                ....     ....   ....     .........    .....       ",
"      .....      ........   .....      ......   .....    .....                ....     ....   ....     ...........   .....      ",
"     ....      ........     .....      ......   .....    .....                ....     ....   ....    .............   .....     ",
"    .....     ........      .....      ......   .....    .....                ....     ....   ....    .....   .....    .....    ",
"   .....     .......        .....      ......   .....    .....                ....     ....   ....    ....     ....     .....   ",
"   ....      .....          .....      ......   .....    .....                ....     ....   ....    ....     ....      ....   ",
"  ....       ....           .....      ......   .....    .....                ....     ....   ....   .....     ....       ....  ",
"  ....       ....           .....      ......   .....    .....                ....     ....   ....   .....     ....       ....  ",
"  ...        ....           .....      ......   .....    .....                ....     ....   ....   ....      ....        ...  ",
" ....        ....           .....      ......   .....    .....                ....     ....   ....   ....      ....        .... ",
" ....        ..........     .....      ......   .....    .....                ....     ....   ....   ....      ....        .... ",
" ....        ..........     .....      ......   .....    .....  ...........   ....     ....   ....   ....     .....        .... ",
" ....        ..........     .....      ......   .....    .....  ...........   ....     ....   ....   ....    ......        .... ",
"  ...        ....           .....      ......   .....    .....  ...........   ....     ....   ....   ....  ........        ...  ",
"  ....       ....           .....      ......   .....    .....         ....   ....     ....   ....   ..............       ....  ",
"  ....       ....           .....      ......   .....    .....         ....   ....     ....   ....   ..............       ....  ",
"   ....      ....           .....      ......   .....    .....         ....   ....     ....   ....   ........  ....      ....   ",
"   .....     .....          .....      ......   .....    .....         ....   ....     ....   ....   ......    ....     .....   ",
"    .....    .......        .....      ......   .....    .....         ....   ....     ....   ....   ....      ....    .....    ",
"     ....    .........      .....      ......   .....    .....         ....   ....     ....   ....   ....      ....    ....     ",
"      .....    .........    .....      ......   .....    .....         ....   ....     ....   ....   ....      ...   .....      ",
"       .....     ........   .....      ......   .....    .....         ....   ....     ....   ....   ....      .    .....       ",
"        .....      .......  .....      ......   .....    .....         ....   ....     ....   ....   ....          .....        ",
"         ......      .....  .....      ......   .....    .....         ....   ....     ....   ....   ....        ......         ",
"          .......      ...  .....      ......   .....    .....         ....   ....     ....   ....   ....      .......          ",
"            .......         .....      ......   .....    .....         ....   ....     ....   ....   ...     .......            ",
"             ........        ....      ......   .....    .....         ....   ....     ....   ....   .     ........             ",
"               ........        ..      ......   .....    .....         ....   ....     ....   ....       ........               ",
"                 ........              ......   .....    .....        .....   ....     ....   ...      ........                 ",
"                   .........           ......   .....    ......      ......   ....     ....         .........                   ",
"                     ..........         .....   .....    ......... ........   ....     ..        .........                      ",
"                        ..........         ..   .....    ..................   ....            ..........                        ",
"                          ............          .....     ................    ..          ............                          ",
"                             .............                 ..............             .............                             ",
"                                ..............                                    ..............                                ",
"                                    .................                      .................                                    ",
"                                       ..................................................                                       ",
"                                             ......................................                                             ",
"                                                  ............................                                                  ",
"                                                            ........                                                            ",
"                                                                                                                                "};
